<svg xmlns="http://www.w3.org/2000/svg" viewBox="0 0 520 640"><path d="M94.69,130l55-1,2,28h86l35-86h76V24h-157a42,42,0,0,0-29,11l-70,68C65.69,127,94.69,130,94.69,130ZM358.36,68l23.17-9.35v-21L358.36,24.76ZM138.69,167h114v38h-114Zm162,281c0-87-47-108-52-113s-8-9-8-19,12-16,12-26c0-18-12-21-12-29,0-14,11-14,11-26,0-16-11-20-11-20h-97c-74,118-72,239-72,239V585c0,29,14,31,14,31h203c15,0,12-19,12-19Zm81-262c-43-45-44-105-44-105h-52c11,64,51,98,78,114,14,8,18,7,21,4C389.69,192,381.69,186,381.69,186ZM444.58,56.69s-41-5-40.94-8h0c0-3.28,41.73-7,41.73-7,1.08,0,10-.43,9.83,7.85C455.06,58,445.65,56.71,444.58,56.69ZM441.24,31.9s-40.49,7.66-41.57,4.75h0c-1.22-3.09,36.66-19.17,36.66-19.17,1-.32,9.23-3.42,12.21,4.42C451.62,30,442.26,31.59,441.24,31.9Zm7.3,44.16c-3,7.84-11.19,4.74-12.21,4.43,0,0-37.88-16.08-36.66-19.18h0c1.08-2.9,41.57,4.76,41.57,4.76C442.26,66.38,451.62,68,448.54,76.06Z" fill="#2f1733"/></svg>
