<svg xmlns="http://www.w3.org/2000/svg" viewBox="0 0 504 481"><path d="M75.5,253.3c0-92.5,78.6-167.4,175.5-167.4s175.5,75,175.5,167.3S348,420.6,251,420.6,75.5,345.6,75.5,253.2Z" fill="#fd5774"/><path d="M351.8,200.3c0-79.9,88.7,44,11.7,139.7-67.1,83.5-223.7,34.3-143.8,34.3,81.2,0,132-71.6,132-174Z" fill="#82526c"/><path d="M249.7,331.7c-10.1-22.6,19.9-32.6,22.2-32.6s30.8-.6,31.6,28.2c0,1.2-11.2,22.5-24.7,23.6s-23-5.5-29-19.2Zm-63.4-76.6c13.4-1.1,24.7-22.4,24.6-23.7-.8-28.8-29.3-28.2-31.6-28.2s-32.3,10-22.1,32.7c6.1,13.6,15.7,20.3,29,19.2Zm122.3-41.4c13.4-1.1,24.7-22.4,24.6-23.7-.8-28.8-29.3-28.2-31.6-28.2s-32.3,10-22.1,32.6c6.1,13.7,15.6,20.4,29,19.3Zm190.8,68.2L437,266a4.5,4.5,0,0,0-2.9,0q.5-6.3.5-12.7a169,169,0,0,0-31-97.4,3.91,3.91,0,0,0,.6-.4l60-39.4c3.1-2.6-17.5-32-20.7-29.5l-55,50.6A186,186,0,0,0,275,79.4a5.09,5.09,0,0,0,.7-2L288,6.6c.3-4-35.3-9.2-35.6-5.1l-.7,76v.4h-.8c-52,0-98.9,20.7-132.3,54L75.5,75.6c-2.8-3-30.6,19.8-27.8,22.8l55,51.7a168.58,168.58,0,0,0-33,129.5L1.3,288.3c-4,.9,1.7,36.4,5.7,35.5l68.3-20.3c13.7,43.8,45,80.5,86,102.6l-43.4,52.4c-2.3,3.3,26,25.4,28.3,22l37.7-64.1a191.24,191.24,0,0,0,148-5.8l30.4,52.1c1.8,3.2,16.6-1.7,22.2-4.7s12.7-12,10.9-15.1L352.9,399a175.78,175.78,0,0,0,78-110.7l62.8,23.6c3.4,1.3,6.1-8.3,8.5-14.2s.6-14.6-2.8-15.8ZM251,412.7c-92.4,0-167.6-71.5-167.6-159.4S158.7,93.8,251,93.8s167.6,71.5,167.6,159.4S343.4,412.8,251,412.8Z" fill="#2f1733"/></svg>
